<svg xmlns="http://www.w3.org/2000/svg" version="1.0" width="504.000000pt" height="495.000000pt" viewBox="0 0 504.000000 495.000000" preserveAspectRatio="xMidYMid meet">

<g transform="translate(0.000000,495.000000) scale(0.100000,-0.100000)" fill="#f4f4f5" stroke="none">
<path d="M2437 3528 l-77 -31 17 -26 c52 -78 125 -201 139 -234 13 -30 20 -36 36 -32 35 12 148 65 148 71 0 23 -160 284 -174 283 -6 0 -46 -14 -89 -31z" fill="#f4f4f5"/>
<path d="M2190 3439 c-41 -17 -76 -32 -78 -34 -2 -1 26 -54 62 -117 60 -104 75 -138 61 -138 -3 0 -64 -12 -136 -26 -72 -14 -135 -22 -139 -17 -11 12 -55 154 -75 246 l-17 77 -37 0 c-48 -1 -240 -25 -246 -31 -4 -5 75 -251 100 -311 7 -17 -7 -18 -216 -18 -202 0 -347 7 -541 26 l-68 7 0 -90 c0 -50 3 -111 6 -136 6 -39 10 -47 33 -51 59 -12 537 -24 691 -17 91 4 172 5 182 3 9 -2 30 -36 48 -77 17 -40 60 -123 96 -185 35 -63 63 -115 61 -116 -2 -2 -70 3 -152 10 -83 7 -151 12 -153 10 -2 -1 -6 -52 -9 -113 -5 -90 -3 -111 8 -115 8 -2 97 -12 199 -21 102 -9 210 -21 240 -26 130 -22 110 -31 180 76 l63 95 -46 58 c-63 80 -156 230 -211 341 -26 51 -46 94 -44 96 2 1 46 9 98 18 52 9 137 26 188 37 106 25 100 12 78 165 -13 90 -12 96 19 109 15 6 -146 297 -163 295 -4 0 -41 -14 -82 -30z" fill="#f4f4f5"/>
<path d="M3538 3427 c-53 -6 -88 -14 -88 -21 0 -6 14 -54 30 -106 17 -51 30 -95 30 -97 0 -12 -330 0 -588 23 l-84 7 7 -92 c4 -50 11 -106 14 -124 l7 -32 84 -8 c47 -4 208 -11 359 -15 l274 -7 32 -93 32 -92 -24 -6 c-28 -8 -657 3 -757 12 l-69 6 7 -68 c3 -38 9 -94 12 -125 l6 -57 46 -8 c26 -4 235 -8 464 -8 l418 -1 55 -98 c30 -53 55 -100 55 -104 0 -6 -119 2 -212 13 l-46 6 -6 -53 c-3 -30 -7 -77 -10 -105 l-5 -52 102 -11 c56 -6 171 -21 255 -33 84 -12 154 -19 156 -17 2 2 31 46 65 97 l62 92 -36 39 c-53 56 -81 97 -126 177 -45 83 -47 94 -16 94 37 0 291 51 301 61 10 9 -20 227 -33 241 -3 4 -73 -8 -156 -26 -196 -43 -255 -51 -255 -34 0 7 -6 24 -13 39 -18 32 -47 119 -47 136 0 7 9 13 19 13 28 0 312 57 342 69 l25 9 -14 119 c-9 65 -16 119 -17 121 -2 2 -56 -11 -122 -27 -163 -41 -294 -62 -298 -47 -16 53 -25 88 -30 126 -12 81 -11 80 -68 79 -29 -1 -91 -6 -139 -12z" fill="#f4f4f5"/>
<path d="M996 2371 c-97 -218 -111 -385 -44 -529 30 -62 130 -160 200 -195 175 -86 423 -115 753 -86 110 9 295 35 300 41 1 2 5 63 9 135 l7 133 -28 -5 c-252 -43 -655 -53 -778 -21 -76 20 -139 52 -173 88 -73 78 -68 213 12 364 19 37 35 68 33 69 -5 4 -244 65 -254 65 -6 0 -22 -26 -37 -59z" fill="#f4f4f5"/>
<path d="M2925 2286 c-80 -180 -92 -335 -36 -461 27 -62 109 -146 175 -179 186 -94 525 -118 924 -65 l89 12 7 81 c10 140 8 186 -10 186 -8 0 -70 -7 -137 -16 -181 -25 -519 -25 -614 -1 -195 51 -250 168 -160 349 19 40 36 78 37 83 0 6 -14 13 -32 16 -18 4 -75 16 -127 27 l-93 20 -23 -52z" fill="#f4f4f5"/>
</g>
</svg>