<svg xmlns="http://www.w3.org/2000/svg" version="1.0" width="2346.000000pt" height="2300.000000pt" viewBox="0 0 2346.000000 2300.000000" preserveAspectRatio="xMidYMid meet">

<g transform="translate(0.000000,2300.000000) scale(0.100000,-0.100000)" fill="#71717a" stroke="none">
<path d="M11735 16539 c-159 -64 -721 -292 -727 -296 -4 -2 30 -59 76 -126 190 -278 487 -789 670 -1155 31 -62 60 -111 64 -108 7 4 681 303 750 332 l32 14 -51 98 c-225 420 -642 1116 -738 1229 l-26 32 -50 -20z" fill="#71717a"/>
<path d="M10545 16109 c-244 -98 -721 -292 -727 -295 -4 -3 21 -48 56 -102 134 -208 328 -544 466 -807 34 -66 78 -148 96 -182 l34 -61 -150 -36 c-160 -39 -402 -91 -615 -132 -167 -33 -589 -103 -593 -99 -6 6 -130 411 -180 590 -67 235 -142 539 -192 778 -23 105 -42 192 -43 194 -6 5 -1335 -152 -1342 -158 -2 -3 16 -59 41 -125 25 -65 140 -400 255 -743 115 -342 214 -631 219 -641 9 -16 1 -18 -98 -24 -439 -27 -1228 -35 -1712 -16 -611 24 -1256 73 -1854 141 -98 11 -181 18 -184 15 -5 -6 16 -1267 22 -1273 4 -5 504 -41 786 -58 1148 -65 2126 -67 3200 -5 96 5 200 12 231 15 l56 4 94 -212 c190 -431 470 -969 728 -1400 62 -104 111 -190 109 -191 -1 -2 -39 0 -83 5 -225 22 -1368 110 -1372 105 -3 -3 -20 -184 -39 -403 -47 -568 -54 -647 -51 -649 1 -2 158 -17 347 -34 1005 -89 1784 -180 2175 -254 97 -18 133 -21 141 -12 6 6 132 187 279 401 147 215 283 411 301 436 l34 47 -76 83 c-313 344 -613 779 -927 1345 -152 275 -443 861 -433 871 2 2 108 19 235 39 318 48 679 114 971 179 235 52 564 136 575 146 2 3 -27 248 -65 544 -38 297 -66 542 -62 546 6 5 69 31 170 70 23 9 23 11 -63 177 -114 217 -288 527 -435 772 -112 188 -266 431 -272 429 -2 0 -25 -9 -53 -20z" fill="#71717a"/>
<path d="M17230 15994 c-63 -7 -353 -39 -643 -71 -291 -32 -533 -60 -538 -63 -5 -4 21 -96 58 -206 37 -109 108 -329 158 -489 l92 -290 -246 -9 c-391 -14 -1293 12 -1831 54 -244 19 -581 50 -814 76 -126 14 -231 23 -233 20 -6 -6 64 -1136 71 -1143 11 -12 762 -67 1296 -95 271 -14 1846 -19 1986 -5 l81 7 131 -383 c73 -211 147 -422 166 -469 l33 -86 -111 -6 c-743 -44 -1738 -46 -2556 -5 -285 14 -761 46 -1039 70 -128 11 -236 18 -238 15 -7 -6 64 -1166 71 -1173 1 -2 128 -10 282 -18 1242 -65 2495 -70 3719 -15 127 6 255 12 286 15 l56 4 77 -157 c98 -199 261 -500 383 -710 52 -90 94 -164 92 -166 -2 -2 -282 24 -623 56 -340 33 -621 57 -624 54 -6 -7 -104 -937 -98 -943 1 -1 141 -18 312 -38 739 -84 1530 -191 1884 -254 125 -22 168 -26 176 -18 6 7 144 213 306 458 l295 445 -126 130 c-162 167 -237 260 -376 469 -122 184 -206 326 -364 615 l-101 185 33 7 c17 4 111 19 207 33 266 39 597 100 875 161 243 53 473 108 480 116 4 4 -192 1168 -197 1173 -2 2 -131 -30 -288 -71 -619 -161 -969 -231 -1587 -318 l-32 -5 -37 97 c-20 53 -57 149 -82 212 -46 118 -204 602 -198 608 2 1 79 14 172 28 391 57 839 143 1229 235 216 50 424 104 430 111 4 4 -152 1138 -157 1143 -2 2 -52 -12 -113 -30 -534 -159 -1167 -297 -1695 -370 -63 -8 -124 -18 -136 -20 -20 -4 -23 7 -58 178 -52 259 -146 813 -146 861 0 7 -7 7 -150 -10z" fill="#71717a"/>
<path d="M4700 11128 c-307 -636 -450 -1170 -450 -1686 0 -510 145 -923 447 -1273 407 -470 1068 -779 1933 -903 294 -43 503 -57 910 -63 844 -12 1678 48 2454 178 236 39 276 48 276 62 0 7 16 289 35 626 19 338 33 616 32 618 -2 1 -75 -11 -162 -27 -521 -94 -1086 -156 -1745 -191 -304 -16 -1047 -17 -1220 -1 -365 34 -606 77 -830 151 -551 182 -818 496 -837 986 -15 408 142 882 439 1322 47 70 48 73 26 78 -273 65 -1218 285 -1224 285 -3 0 -41 -73 -84 -162z" fill="#71717a"/>
<path d="M13701 10783 c-215 -428 -356 -867 -392 -1226 -17 -173 -7 -521 19 -667 51 -282 151 -518 306 -726 69 -94 233 -257 334 -333 424 -321 1041 -517 1852 -590 708 -64 1883 -20 2808 104 193 26 352 52 358 58 4 4 74 1260 71 1264 -2 1 -61 -9 -133 -22 -393 -75 -1056 -147 -1604 -175 -1549 -78 -2336 81 -2651 538 -104 149 -145 316 -136 537 15 322 133 626 378 973 33 45 57 82 55 82 -2 0 -138 27 -302 59 -396 79 -919 181 -927 181 -4 0 -20 -26 -36 -57z" fill="#71717a"/>
</g>
</svg>